<svg width="504" height="185" viewBox="0 0 504 185" fill="none" xmlns="http://www.w3.org/2000/svg">
<path d="M43.0227 95.1136C42.7955 92.6136 41.7841 90.6705 39.9886 89.2841C38.2159 87.875 35.6818 87.1705 32.3864 87.1705C30.2045 87.1705 28.3864 87.4545 26.9318 88.0227C25.4773 88.5909 24.3864 89.375 23.6591 90.375C22.9318 91.3523 22.5568 92.4773 22.5341 93.75C22.4886 94.7955 22.6932 95.7159 23.1477 96.5114C23.625 97.3068 24.3068 98.0114 25.1932 98.625C26.1023 99.2159 27.1932 99.7386 28.4659 100.193C29.7386 100.648 31.1705 101.045 32.7614 101.386L38.7614 102.75C42.2159 103.5 45.2614 104.5 47.8977 105.75C50.5568 107 52.7841 108.489 54.5795 110.216C56.3977 111.943 57.7727 113.932 58.7045 116.182C59.6364 118.432 60.1136 120.955 60.1364 123.75C60.1136 128.159 59 131.943 56.7955 135.102C54.5909 138.261 51.4205 140.682 47.2841 142.364C43.1705 144.045 38.2045 144.886 32.3864 144.886C26.5455 144.886 21.4545 144.011 17.1136 142.261C12.7727 140.511 9.39773 137.852 6.98864 134.284C4.57955 130.716 3.34091 126.205 3.27273 120.75H19.4318C19.5682 123 20.1705 124.875 21.2386 126.375C22.3068 127.875 23.7727 129.011 25.6364 129.784C27.5227 130.557 29.7045 130.943 32.1818 130.943C34.4545 130.943 36.3864 130.636 37.9773 130.023C39.5909 129.409 40.8295 128.557 41.6932 127.466C42.5568 126.375 43 125.125 43.0227 123.716C43 122.398 42.5909 121.273 41.7955 120.341C41 119.386 39.7727 118.568 38.1136 117.886C36.4773 117.182 34.3864 116.534 31.8409 115.943L24.5455 114.239C18.5 112.852 13.7386 110.614 10.2614 107.523C6.78409 104.409 5.05682 100.205 5.07955 94.9091C5.05682 90.5909 6.21591 86.8068 8.55682 83.5568C10.8977 80.3068 14.1364 77.7727 18.2727 75.9545C22.4091 74.1364 27.125 73.2273 32.4205 73.2273C37.8295 73.2273 42.5227 74.1477 46.5 75.9886C50.5 77.8068 53.6023 80.3636 55.8068 83.6591C58.0114 86.9545 59.1364 90.7727 59.1818 95.1136H43.0227ZM82.4495 114.136V144H65.7791V74.1818H81.9041V101.25H82.4836C83.6655 98.0227 85.5973 95.5 88.2791 93.6818C90.9836 91.8636 94.2905 90.9545 98.1995 90.9545C101.881 90.9545 105.086 91.7727 107.813 93.4091C110.54 95.0227 112.654 97.3068 114.154 100.261C115.677 103.216 116.427 106.67 116.404 110.625V144H99.7336V113.898C99.7564 110.989 99.0291 108.716 97.5518 107.08C96.0745 105.443 93.995 104.625 91.3132 104.625C89.5632 104.625 88.0177 105.011 86.6768 105.784C85.3586 106.534 84.3245 107.614 83.5745 109.023C82.8473 110.432 82.4723 112.136 82.4495 114.136ZM123.93 144V91.6364H140.601V144H123.93ZM132.283 85.5341C129.942 85.5341 127.93 84.7614 126.249 83.2159C124.567 81.6477 123.726 79.7614 123.726 77.5568C123.726 75.375 124.567 73.5114 126.249 71.9659C127.93 70.3977 129.942 69.6136 132.283 69.6136C134.646 69.6136 136.658 70.3977 138.317 71.9659C139.999 73.5114 140.839 75.375 140.839 77.5568C140.839 79.7614 139.999 81.6477 138.317 83.2159C136.658 84.7614 134.646 85.5341 132.283 85.5341ZM148.332 144V91.6364H164.525V101.182H165.07C166.025 97.7273 167.582 95.1591 169.741 93.4773C171.9 91.7727 174.411 90.9205 177.275 90.9205C178.048 90.9205 178.843 90.9773 179.661 91.0909C180.479 91.1818 181.241 91.3295 181.945 91.5341V106.023C181.15 105.75 180.104 105.534 178.809 105.375C177.536 105.216 176.4 105.136 175.4 105.136C173.423 105.136 171.638 105.58 170.048 106.466C168.479 107.33 167.241 108.545 166.332 110.114C165.445 111.659 165.002 113.477 165.002 115.568V144H148.332ZM207.582 144.989C202.082 144.989 197.355 143.864 193.4 141.614C189.469 139.341 186.435 136.182 184.298 132.136C182.185 128.068 181.128 123.352 181.128 117.989C181.128 112.602 182.185 107.886 184.298 103.841C186.435 99.7727 189.469 96.6136 193.4 94.3636C197.355 92.0909 202.082 90.9545 207.582 90.9545C213.082 90.9545 217.798 92.0909 221.73 94.3636C225.685 96.6136 228.719 99.7727 230.832 103.841C232.969 107.886 234.037 112.602 234.037 117.989C234.037 123.352 232.969 128.068 230.832 132.136C228.719 136.182 225.685 139.341 221.73 141.614C217.798 143.864 213.082 144.989 207.582 144.989ZM207.685 132.409C209.685 132.409 211.378 131.795 212.764 130.568C214.15 129.341 215.207 127.636 215.935 125.455C216.685 123.273 217.06 120.75 217.06 117.886C217.06 114.977 216.685 112.432 215.935 110.25C215.207 108.068 214.15 106.364 212.764 105.136C211.378 103.909 209.685 103.295 207.685 103.295C205.616 103.295 203.866 103.909 202.435 105.136C201.025 106.364 199.946 108.068 199.196 110.25C198.469 112.432 198.105 114.977 198.105 117.886C198.105 120.75 198.469 123.273 199.196 125.455C199.946 127.636 201.025 129.341 202.435 130.568C203.866 131.795 205.616 132.409 207.685 132.409ZM239.697 144V74.1818H268.81C274.038 74.1818 278.413 74.9205 281.935 76.3977C285.481 77.875 288.14 79.9432 289.913 82.6023C291.708 85.2614 292.606 88.3409 292.606 91.8409C292.606 94.5 292.049 96.875 290.935 98.9659C289.822 101.034 288.288 102.75 286.333 104.114C284.378 105.477 282.117 106.432 279.549 106.977V107.659C282.367 107.795 284.969 108.557 287.356 109.943C289.765 111.33 291.697 113.261 293.151 115.739C294.606 118.193 295.333 121.102 295.333 124.466C295.333 128.216 294.378 131.568 292.469 134.523C290.56 137.455 287.799 139.773 284.185 141.477C280.572 143.159 276.185 144 271.026 144H239.697ZM256.572 130.398H267.003C270.663 130.398 273.356 129.705 275.083 128.318C276.833 126.932 277.708 125 277.708 122.523C277.708 120.727 277.288 119.182 276.447 117.886C275.606 116.568 274.413 115.557 272.867 114.852C271.322 114.125 269.469 113.761 267.31 113.761H256.572V130.398ZM256.572 102.886H265.913C267.753 102.886 269.39 102.58 270.822 101.966C272.253 101.352 273.367 100.466 274.163 99.3068C274.981 98.1477 275.39 96.75 275.39 95.1136C275.39 92.7727 274.56 90.9318 272.901 89.5909C271.242 88.25 269.003 87.5795 266.185 87.5795H256.572V102.886ZM317.442 74.1818V144H300.567V74.1818H317.442ZM322.871 87.8864V74.1818H381.883V87.8864H360.712V144H344.076V87.8864H322.871Z" fill="#181C14"/>
<path d="M43.0227 95.1136C42.7955 92.6136 41.7841 90.6705 39.9886 89.2841C38.2159 87.875 35.6818 87.1705 32.3864 87.1705C30.2045 87.1705 28.3864 87.4545 26.9318 88.0227C25.4773 88.5909 24.3864 89.375 23.6591 90.375C22.9318 91.3523 22.5568 92.4773 22.5341 93.75C22.4886 94.7955 22.6932 95.7159 23.1477 96.5114C23.625 97.3068 24.3068 98.0114 25.1932 98.625C26.1023 99.2159 27.1932 99.7386 28.4659 100.193C29.7386 100.648 31.1705 101.045 32.7614 101.386L38.7614 102.75C42.2159 103.5 45.2614 104.5 47.8977 105.75C50.5568 107 52.7841 108.489 54.5795 110.216C56.3977 111.943 57.7727 113.932 58.7045 116.182C59.6364 118.432 60.1136 120.955 60.1364 123.75C60.1136 128.159 59 131.943 56.7955 135.102C54.5909 138.261 51.4205 140.682 47.2841 142.364C43.1705 144.045 38.2045 144.886 32.3864 144.886C26.5455 144.886 21.4545 144.011 17.1136 142.261C12.7727 140.511 9.39773 137.852 6.98864 134.284C4.57955 130.716 3.34091 126.205 3.27273 120.75H19.4318C19.5682 123 20.1705 124.875 21.2386 126.375C22.3068 127.875 23.7727 129.011 25.6364 129.784C27.5227 130.557 29.7045 130.943 32.1818 130.943C34.4545 130.943 36.3864 130.636 37.9773 130.023C39.5909 129.409 40.8295 128.557 41.6932 127.466C42.5568 126.375 43 125.125 43.0227 123.716C43 122.398 42.5909 121.273 41.7955 120.341C41 119.386 39.7727 118.568 38.1136 117.886C36.4773 117.182 34.3864 116.534 31.8409 115.943L24.5455 114.239C18.5 112.852 13.7386 110.614 10.2614 107.523C6.78409 104.409 5.05682 100.205 5.07955 94.9091C5.05682 90.5909 6.21591 86.8068 8.55682 83.5568C10.8977 80.3068 14.1364 77.7727 18.2727 75.9545C22.4091 74.1364 27.125 73.2273 32.4205 73.2273C37.8295 73.2273 42.5227 74.1477 46.5 75.9886C50.5 77.8068 53.6023 80.3636 55.8068 83.6591C58.0114 86.9545 59.1364 90.7727 59.1818 95.1136H43.0227ZM82.4495 114.136V144H65.7791V74.1818H81.9041V101.25H82.4836C83.6655 98.0227 85.5973 95.5 88.2791 93.6818C90.9836 91.8636 94.2905 90.9545 98.1995 90.9545C101.881 90.9545 105.086 91.7727 107.813 93.4091C110.54 95.0227 112.654 97.3068 114.154 100.261C115.677 103.216 116.427 106.67 116.404 110.625V144H99.7336V113.898C99.7564 110.989 99.0291 108.716 97.5518 107.08C96.0745 105.443 93.995 104.625 91.3132 104.625C89.5632 104.625 88.0177 105.011 86.6768 105.784C85.3586 106.534 84.3245 107.614 83.5745 109.023C82.8473 110.432 82.4723 112.136 82.4495 114.136ZM123.93 144V91.6364H140.601V144H123.93ZM132.283 85.5341C129.942 85.5341 127.93 84.7614 126.249 83.2159C124.567 81.6477 123.726 79.7614 123.726 77.5568C123.726 75.375 124.567 73.5114 126.249 71.9659C127.93 70.3977 129.942 69.6136 132.283 69.6136C134.646 69.6136 136.658 70.3977 138.317 71.9659C139.999 73.5114 140.839 75.375 140.839 77.5568C140.839 79.7614 139.999 81.6477 138.317 83.2159C136.658 84.7614 134.646 85.5341 132.283 85.5341ZM148.332 144V91.6364H164.525V101.182H165.07C166.025 97.7273 167.582 95.1591 169.741 93.4773C171.9 91.7727 174.411 90.9205 177.275 90.9205C178.048 90.9205 178.843 90.9773 179.661 91.0909C180.479 91.1818 181.241 91.3295 181.945 91.5341V106.023C181.15 105.75 180.104 105.534 178.809 105.375C177.536 105.216 176.4 105.136 175.4 105.136C173.423 105.136 171.638 105.58 170.048 106.466C168.479 107.33 167.241 108.545 166.332 110.114C165.445 111.659 165.002 113.477 165.002 115.568V144H148.332ZM207.582 144.989C202.082 144.989 197.355 143.864 193.4 141.614C189.469 139.341 186.435 136.182 184.298 132.136C182.185 128.068 181.128 123.352 181.128 117.989C181.128 112.602 182.185 107.886 184.298 103.841C186.435 99.7727 189.469 96.6136 193.4 94.3636C197.355 92.0909 202.082 90.9545 207.582 90.9545C213.082 90.9545 217.798 92.0909 221.73 94.3636C225.685 96.6136 228.719 99.7727 230.832 103.841C232.969 107.886 234.037 112.602 234.037 117.989C234.037 123.352 232.969 128.068 230.832 132.136C228.719 136.182 225.685 139.341 221.73 141.614C217.798 143.864 213.082 144.989 207.582 144.989ZM207.685 132.409C209.685 132.409 211.378 131.795 212.764 130.568C214.15 129.341 215.207 127.636 215.935 125.455C216.685 123.273 217.06 120.75 217.06 117.886C217.06 114.977 216.685 112.432 215.935 110.25C215.207 108.068 214.15 106.364 212.764 105.136C211.378 103.909 209.685 103.295 207.685 103.295C205.616 103.295 203.866 103.909 202.435 105.136C201.025 106.364 199.946 108.068 199.196 110.25C198.469 112.432 198.105 114.977 198.105 117.886C198.105 120.75 198.469 123.273 199.196 125.455C199.946 127.636 201.025 129.341 202.435 130.568C203.866 131.795 205.616 132.409 207.685 132.409ZM239.697 144V74.1818H268.81C274.038 74.1818 278.413 74.9205 281.935 76.3977C285.481 77.875 288.14 79.9432 289.913 82.6023C291.708 85.2614 292.606 88.3409 292.606 91.8409C292.606 94.5 292.049 96.875 290.935 98.9659C289.822 101.034 288.288 102.75 286.333 104.114C284.378 105.477 282.117 106.432 279.549 106.977V107.659C282.367 107.795 284.969 108.557 287.356 109.943C289.765 111.33 291.697 113.261 293.151 115.739C294.606 118.193 295.333 121.102 295.333 124.466C295.333 128.216 294.378 131.568 292.469 134.523C290.56 137.455 287.799 139.773 284.185 141.477C280.572 143.159 276.185 144 271.026 144H239.697ZM256.572 130.398H267.003C270.663 130.398 273.356 129.705 275.083 128.318C276.833 126.932 277.708 125 277.708 122.523C277.708 120.727 277.288 119.182 276.447 117.886C275.606 116.568 274.413 115.557 272.867 114.852C271.322 114.125 269.469 113.761 267.31 113.761H256.572V130.398ZM256.572 102.886H265.913C267.753 102.886 269.39 102.58 270.822 101.966C272.253 101.352 273.367 100.466 274.163 99.3068C274.981 98.1477 275.39 96.75 275.39 95.1136C275.39 92.7727 274.56 90.9318 272.901 89.5909C271.242 88.25 269.003 87.5795 266.185 87.5795H256.572V102.886ZM317.442 74.1818V144H300.567V74.1818H317.442ZM322.871 87.8864V74.1818H381.883V87.8864H360.712V144H344.076V87.8864H322.871Z" fill="#F5F5F5"/>
<g filter="url(#filter0_f_7_13)">
<path d="M428 166.5L382.5 138.5L413 94.5L356 57L386.5 14L485.5 78.5L428 166.5Z" fill="#1B4332"/>
</g>
<path d="M249.182 172H244.881V160.364H249.176C250.362 160.364 251.383 160.597 252.239 161.062C253.098 161.525 253.761 162.191 254.227 163.062C254.693 163.93 254.926 164.968 254.926 166.176C254.926 167.388 254.693 168.43 254.227 169.301C253.765 170.172 253.104 170.841 252.244 171.307C251.384 171.769 250.364 172 249.182 172ZM247.693 169.602H249.074C249.725 169.602 250.277 169.492 250.727 169.273C251.182 169.049 251.525 168.688 251.756 168.188C251.991 167.684 252.108 167.013 252.108 166.176C252.108 165.339 251.991 164.672 251.756 164.176C251.521 163.676 251.174 163.316 250.716 163.097C250.261 162.873 249.701 162.761 249.034 162.761H247.693V169.602ZM259.381 160.364V172H256.568V160.364H259.381ZM268.783 164.165C268.718 163.926 268.624 163.716 268.499 163.534C268.374 163.348 268.22 163.191 268.038 163.062C267.857 162.934 267.648 162.837 267.413 162.773C267.179 162.705 266.921 162.67 266.641 162.67C266.076 162.67 265.588 162.807 265.175 163.08C264.766 163.352 264.449 163.75 264.226 164.273C264.002 164.792 263.891 165.422 263.891 166.165C263.891 166.911 263.999 167.547 264.214 168.074C264.43 168.6 264.743 169.002 265.152 169.278C265.561 169.555 266.057 169.693 266.641 169.693C267.156 169.693 267.591 169.61 267.947 169.443C268.307 169.273 268.58 169.032 268.766 168.722C268.951 168.411 269.044 168.045 269.044 167.625L269.567 167.688H266.737V165.636H271.754V167.176C271.754 168.218 271.533 169.11 271.089 169.852C270.65 170.595 270.044 171.165 269.271 171.562C268.502 171.96 267.618 172.159 266.618 172.159C265.508 172.159 264.533 171.919 263.692 171.438C262.851 170.956 262.196 170.271 261.726 169.381C261.256 168.487 261.021 167.426 261.021 166.199C261.021 165.244 261.163 164.398 261.447 163.659C261.732 162.917 262.127 162.288 262.635 161.773C263.146 161.258 263.737 160.867 264.408 160.602C265.082 160.337 265.807 160.205 266.584 160.205C267.258 160.205 267.885 160.301 268.464 160.494C269.048 160.688 269.563 160.96 270.01 161.312C270.461 161.665 270.826 162.083 271.107 162.568C271.387 163.053 271.561 163.585 271.629 164.165H268.783ZM276.224 160.364V172H273.412V160.364H276.224ZM277.609 162.648V160.364H287.445V162.648H283.916V172H281.143V162.648H277.609ZM289.882 172H286.859L290.786 160.364H294.53L298.456 172H295.433L292.7 163.295H292.609L289.882 172ZM289.479 167.42H295.797V169.557H289.479V167.42ZM299.709 172V160.364H302.521V169.716H307.362V172H299.709ZM312.256 172V160.364H320.199V162.648H315.068V165.034H319.693V167.324H315.068V172H312.256ZM321.615 172V160.364H326.422C327.293 160.364 328.045 160.521 328.678 160.835C329.314 161.146 329.804 161.593 330.149 162.176C330.494 162.756 330.666 163.443 330.666 164.239C330.666 165.045 330.49 165.731 330.138 166.295C329.786 166.856 329.286 167.284 328.638 167.58C327.99 167.871 327.223 168.017 326.337 168.017H323.297V165.801H325.814C326.238 165.801 326.592 165.746 326.876 165.636C327.164 165.523 327.382 165.352 327.53 165.125C327.678 164.894 327.751 164.598 327.751 164.239C327.751 163.879 327.678 163.581 327.53 163.347C327.382 163.108 327.164 162.93 326.876 162.812C326.589 162.691 326.234 162.631 325.814 162.631H324.428V172H321.615ZM328.166 166.682L331.064 172H327.996L325.155 166.682H328.166ZM343.192 166.182C343.192 167.462 342.946 168.547 342.453 169.438C341.961 170.328 341.294 171.004 340.453 171.466C339.616 171.928 338.677 172.159 337.635 172.159C336.589 172.159 335.648 171.926 334.811 171.46C333.974 170.994 333.309 170.318 332.817 169.432C332.328 168.542 332.084 167.458 332.084 166.182C332.084 164.902 332.328 163.816 332.817 162.926C333.309 162.036 333.974 161.36 334.811 160.898C335.648 160.436 336.589 160.205 337.635 160.205C338.677 160.205 339.616 160.436 340.453 160.898C341.294 161.36 341.961 162.036 342.453 162.926C342.946 163.816 343.192 164.902 343.192 166.182ZM340.317 166.182C340.317 165.424 340.209 164.784 339.993 164.261C339.781 163.739 339.474 163.343 339.072 163.074C338.675 162.805 338.196 162.67 337.635 162.67C337.078 162.67 336.599 162.805 336.197 163.074C335.796 163.343 335.487 163.739 335.271 164.261C335.059 164.784 334.953 165.424 334.953 166.182C334.953 166.939 335.059 167.58 335.271 168.102C335.487 168.625 335.796 169.021 336.197 169.29C336.599 169.559 337.078 169.693 337.635 169.693C338.196 169.693 338.675 169.559 339.072 169.29C339.474 169.021 339.781 168.625 339.993 168.102C340.209 167.58 340.317 166.939 340.317 166.182ZM354.737 160.364V172H352.351L347.72 165.284H347.646V172H344.834V160.364H347.254L351.834 167.068H351.93V160.364H354.737ZM356.125 162.648V160.364H365.96V162.648H362.432V172H359.659V162.648H356.125ZM370.146 160.364V172H367.334V160.364H370.146ZM371.912 172V160.364H380.026V162.648H374.724V165.034H379.611V167.324H374.724V169.716H380.026V172H371.912ZM381.787 172V160.364H386.594C387.465 160.364 388.217 160.521 388.849 160.835C389.486 161.146 389.976 161.593 390.321 162.176C390.666 162.756 390.838 163.443 390.838 164.239C390.838 165.045 390.662 165.731 390.31 166.295C389.957 166.856 389.457 167.284 388.81 167.58C388.162 167.871 387.395 168.017 386.509 168.017H383.469V165.801H385.986C386.41 165.801 386.764 165.746 387.048 165.636C387.336 165.523 387.554 165.352 387.702 165.125C387.849 164.894 387.923 164.598 387.923 164.239C387.923 163.879 387.849 163.581 387.702 163.347C387.554 163.108 387.336 162.93 387.048 162.812C386.76 162.691 386.406 162.631 385.986 162.631H384.599V172H381.787ZM388.338 166.682L391.236 172H388.168L385.327 166.682H388.338Z" fill="#F5F5F5"/>
<defs>
<filter id="filter0_f_7_13" x="338" y="-4" width="165.5" height="188.5" filterUnits="userSpaceOnUse" color-interpolation-filters="sRGB">
<feFlood flood-opacity="0" result="BackgroundImageFix"/>
<feBlend mode="normal" in="SourceGraphic" in2="BackgroundImageFix" result="shape"/>
<feGaussianBlur stdDeviation="9" result="effect1_foregroundBlur_7_13"/>
</filter>
</defs>
</svg>
