<svg width="595" height="595" viewBox="0 0 595 595" fill="none" xmlns="http://www.w3.org/2000/svg">
<rect width="595" height="595" fill="#F5F5F5"/>
<path d="M98.0227 298.114C97.7955 295.614 96.7841 293.67 94.9886 292.284C93.2159 290.875 90.6818 290.17 87.3864 290.17C85.2045 290.17 83.3864 290.455 81.9318 291.023C80.4773 291.591 79.3864 292.375 78.6591 293.375C77.9318 294.352 77.5568 295.477 77.5341 296.75C77.4886 297.795 77.6932 298.716 78.1477 299.511C78.625 300.307 79.3068 301.011 80.1932 301.625C81.1023 302.216 82.1932 302.739 83.4659 303.193C84.7386 303.648 86.1705 304.045 87.7614 304.386L93.7614 305.75C97.2159 306.5 100.261 307.5 102.898 308.75C105.557 310 107.784 311.489 109.58 313.216C111.398 314.943 112.773 316.932 113.705 319.182C114.636 321.432 115.114 323.955 115.136 326.75C115.114 331.159 114 334.943 111.795 338.102C109.591 341.261 106.42 343.682 102.284 345.364C98.1705 347.045 93.2045 347.886 87.3864 347.886C81.5455 347.886 76.4545 347.011 72.1136 345.261C67.7727 343.511 64.3977 340.852 61.9886 337.284C59.5795 333.716 58.3409 329.205 58.2727 323.75H74.4318C74.5682 326 75.1705 327.875 76.2386 329.375C77.3068 330.875 78.7727 332.011 80.6364 332.784C82.5227 333.557 84.7045 333.943 87.1818 333.943C89.4545 333.943 91.3864 333.636 92.9773 333.023C94.5909 332.409 95.8295 331.557 96.6932 330.466C97.5568 329.375 98 328.125 98.0227 326.716C98 325.398 97.5909 324.273 96.7955 323.341C96 322.386 94.7727 321.568 93.1136 320.886C91.4773 320.182 89.3864 319.534 86.8409 318.943L79.5455 317.239C73.5 315.852 68.7386 313.614 65.2614 310.523C61.7841 307.409 60.0568 303.205 60.0795 297.909C60.0568 293.591 61.2159 289.807 63.5568 286.557C65.8977 283.307 69.1364 280.773 73.2727 278.955C77.4091 277.136 82.125 276.227 87.4205 276.227C92.8295 276.227 97.5227 277.148 101.5 278.989C105.5 280.807 108.602 283.364 110.807 286.659C113.011 289.955 114.136 293.773 114.182 298.114H98.0227ZM137.45 317.136V347H120.779V277.182H136.904V304.25H137.484C138.665 301.023 140.597 298.5 143.279 296.682C145.984 294.864 149.29 293.955 153.2 293.955C156.881 293.955 160.086 294.773 162.813 296.409C165.54 298.023 167.654 300.307 169.154 303.261C170.677 306.216 171.427 309.67 171.404 313.625V347H154.734V316.898C154.756 313.989 154.029 311.716 152.552 310.08C151.075 308.443 148.995 307.625 146.313 307.625C144.563 307.625 143.018 308.011 141.677 308.784C140.359 309.534 139.325 310.614 138.575 312.023C137.847 313.432 137.472 315.136 137.45 317.136ZM178.93 347V294.636H195.601V347H178.93ZM187.283 288.534C184.942 288.534 182.93 287.761 181.249 286.216C179.567 284.648 178.726 282.761 178.726 280.557C178.726 278.375 179.567 276.511 181.249 274.966C182.93 273.398 184.942 272.614 187.283 272.614C189.646 272.614 191.658 273.398 193.317 274.966C194.999 276.511 195.839 278.375 195.839 280.557C195.839 282.761 194.999 284.648 193.317 286.216C191.658 287.761 189.646 288.534 187.283 288.534ZM203.332 347V294.636H219.525V304.182H220.07C221.025 300.727 222.582 298.159 224.741 296.477C226.9 294.773 229.411 293.92 232.275 293.92C233.048 293.92 233.843 293.977 234.661 294.091C235.479 294.182 236.241 294.33 236.945 294.534V309.023C236.15 308.75 235.104 308.534 233.809 308.375C232.536 308.216 231.4 308.136 230.4 308.136C228.423 308.136 226.638 308.58 225.048 309.466C223.479 310.33 222.241 311.545 221.332 313.114C220.445 314.659 220.002 316.477 220.002 318.568V347H203.332ZM262.582 347.989C257.082 347.989 252.355 346.864 248.4 344.614C244.469 342.341 241.435 339.182 239.298 335.136C237.185 331.068 236.128 326.352 236.128 320.989C236.128 315.602 237.185 310.886 239.298 306.841C241.435 302.773 244.469 299.614 248.4 297.364C252.355 295.091 257.082 293.955 262.582 293.955C268.082 293.955 272.798 295.091 276.73 297.364C280.685 299.614 283.719 302.773 285.832 306.841C287.969 310.886 289.037 315.602 289.037 320.989C289.037 326.352 287.969 331.068 285.832 335.136C283.719 339.182 280.685 342.341 276.73 344.614C272.798 346.864 268.082 347.989 262.582 347.989ZM262.685 335.409C264.685 335.409 266.378 334.795 267.764 333.568C269.15 332.341 270.207 330.636 270.935 328.455C271.685 326.273 272.06 323.75 272.06 320.886C272.06 317.977 271.685 315.432 270.935 313.25C270.207 311.068 269.15 309.364 267.764 308.136C266.378 306.909 264.685 306.295 262.685 306.295C260.616 306.295 258.866 306.909 257.435 308.136C256.025 309.364 254.946 311.068 254.196 313.25C253.469 315.432 253.105 317.977 253.105 320.886C253.105 323.75 253.469 326.273 254.196 328.455C254.946 330.636 256.025 332.341 257.435 333.568C258.866 334.795 260.616 335.409 262.685 335.409ZM294.697 347V277.182H323.81C329.038 277.182 333.413 277.92 336.935 279.398C340.481 280.875 343.14 282.943 344.913 285.602C346.708 288.261 347.606 291.341 347.606 294.841C347.606 297.5 347.049 299.875 345.935 301.966C344.822 304.034 343.288 305.75 341.333 307.114C339.378 308.477 337.117 309.432 334.549 309.977V310.659C337.367 310.795 339.969 311.557 342.356 312.943C344.765 314.33 346.697 316.261 348.151 318.739C349.606 321.193 350.333 324.102 350.333 327.466C350.333 331.216 349.378 334.568 347.469 337.523C345.56 340.455 342.799 342.773 339.185 344.477C335.572 346.159 331.185 347 326.026 347H294.697ZM311.572 333.398H322.003C325.663 333.398 328.356 332.705 330.083 331.318C331.833 329.932 332.708 328 332.708 325.523C332.708 323.727 332.288 322.182 331.447 320.886C330.606 319.568 329.413 318.557 327.867 317.852C326.322 317.125 324.469 316.761 322.31 316.761H311.572V333.398ZM311.572 305.886H320.913C322.753 305.886 324.39 305.58 325.822 304.966C327.253 304.352 328.367 303.466 329.163 302.307C329.981 301.148 330.39 299.75 330.39 298.114C330.39 295.773 329.56 293.932 327.901 292.591C326.242 291.25 324.003 290.58 321.185 290.58H311.572V305.886ZM372.442 277.182V347H355.567V277.182H372.442ZM377.871 290.886V277.182H436.883V290.886H415.712V347H399.076V290.886H377.871Z" fill="#181C14"/>
<g filter="url(#filter0_f_1_11)">
<path d="M483 369.5L437.5 341.5L468 297.5L411 260L441.5 217L540.5 281.5L483 369.5Z" fill="#1B4332"/>
</g>
<path d="M304.182 375H299.881V363.364H304.176C305.362 363.364 306.383 363.597 307.239 364.062C308.098 364.525 308.761 365.191 309.227 366.062C309.693 366.93 309.926 367.968 309.926 369.176C309.926 370.388 309.693 371.43 309.227 372.301C308.765 373.172 308.104 373.841 307.244 374.307C306.384 374.769 305.364 375 304.182 375ZM302.693 372.602H304.074C304.725 372.602 305.277 372.492 305.727 372.273C306.182 372.049 306.525 371.688 306.756 371.188C306.991 370.684 307.108 370.013 307.108 369.176C307.108 368.339 306.991 367.672 306.756 367.176C306.521 366.676 306.174 366.316 305.716 366.097C305.261 365.873 304.701 365.761 304.034 365.761H302.693V372.602ZM314.381 363.364V375H311.568V363.364H314.381ZM323.783 367.165C323.718 366.926 323.624 366.716 323.499 366.534C323.374 366.348 323.22 366.191 323.038 366.062C322.857 365.934 322.648 365.837 322.413 365.773C322.179 365.705 321.921 365.67 321.641 365.67C321.076 365.67 320.588 365.807 320.175 366.08C319.766 366.352 319.449 366.75 319.226 367.273C319.002 367.792 318.891 368.422 318.891 369.165C318.891 369.911 318.999 370.547 319.214 371.074C319.43 371.6 319.743 372.002 320.152 372.278C320.561 372.555 321.057 372.693 321.641 372.693C322.156 372.693 322.591 372.61 322.947 372.443C323.307 372.273 323.58 372.032 323.766 371.722C323.951 371.411 324.044 371.045 324.044 370.625L324.567 370.688H321.737V368.636H326.754V370.176C326.754 371.218 326.533 372.11 326.089 372.852C325.65 373.595 325.044 374.165 324.271 374.562C323.502 374.96 322.618 375.159 321.618 375.159C320.508 375.159 319.533 374.919 318.692 374.438C317.851 373.956 317.196 373.271 316.726 372.381C316.256 371.487 316.021 370.426 316.021 369.199C316.021 368.244 316.163 367.398 316.447 366.659C316.732 365.917 317.127 365.288 317.635 364.773C318.146 364.258 318.737 363.867 319.408 363.602C320.082 363.337 320.807 363.205 321.584 363.205C322.258 363.205 322.885 363.301 323.464 363.494C324.048 363.688 324.563 363.96 325.01 364.312C325.461 364.665 325.826 365.083 326.107 365.568C326.387 366.053 326.561 366.585 326.629 367.165H323.783ZM331.224 363.364V375H328.412V363.364H331.224ZM332.609 365.648V363.364H342.445V365.648H338.916V375H336.143V365.648H332.609ZM344.882 375H341.859L345.786 363.364H349.53L353.456 375H350.433L347.7 366.295H347.609L344.882 375ZM344.479 370.42H350.797V372.557H344.479V370.42ZM354.709 375V363.364H357.521V372.716H362.362V375H354.709ZM367.256 375V363.364H375.199V365.648H370.068V368.034H374.693V370.324H370.068V375H367.256ZM376.615 375V363.364H381.422C382.293 363.364 383.045 363.521 383.678 363.835C384.314 364.146 384.804 364.593 385.149 365.176C385.494 365.756 385.666 366.443 385.666 367.239C385.666 368.045 385.49 368.731 385.138 369.295C384.786 369.856 384.286 370.284 383.638 370.58C382.99 370.871 382.223 371.017 381.337 371.017H378.297V368.801H380.814C381.238 368.801 381.592 368.746 381.876 368.636C382.164 368.523 382.382 368.352 382.53 368.125C382.678 367.894 382.751 367.598 382.751 367.239C382.751 366.879 382.678 366.581 382.53 366.347C382.382 366.108 382.164 365.93 381.876 365.812C381.589 365.691 381.234 365.631 380.814 365.631H379.428V375H376.615ZM383.166 369.682L386.064 375H382.996L380.155 369.682H383.166ZM398.192 369.182C398.192 370.462 397.946 371.547 397.453 372.438C396.961 373.328 396.294 374.004 395.453 374.466C394.616 374.928 393.677 375.159 392.635 375.159C391.589 375.159 390.648 374.926 389.811 374.46C388.974 373.994 388.309 373.318 387.817 372.432C387.328 371.542 387.084 370.458 387.084 369.182C387.084 367.902 387.328 366.816 387.817 365.926C388.309 365.036 388.974 364.36 389.811 363.898C390.648 363.436 391.589 363.205 392.635 363.205C393.677 363.205 394.616 363.436 395.453 363.898C396.294 364.36 396.961 365.036 397.453 365.926C397.946 366.816 398.192 367.902 398.192 369.182ZM395.317 369.182C395.317 368.424 395.209 367.784 394.993 367.261C394.781 366.739 394.474 366.343 394.072 366.074C393.675 365.805 393.196 365.67 392.635 365.67C392.078 365.67 391.599 365.805 391.197 366.074C390.796 366.343 390.487 366.739 390.271 367.261C390.059 367.784 389.953 368.424 389.953 369.182C389.953 369.939 390.059 370.58 390.271 371.102C390.487 371.625 390.796 372.021 391.197 372.29C391.599 372.559 392.078 372.693 392.635 372.693C393.196 372.693 393.675 372.559 394.072 372.29C394.474 372.021 394.781 371.625 394.993 371.102C395.209 370.58 395.317 369.939 395.317 369.182ZM409.737 363.364V375H407.351L402.72 368.284H402.646V375H399.834V363.364H402.254L406.834 370.068H406.93V363.364H409.737ZM411.125 365.648V363.364H420.96V365.648H417.432V375H414.659V365.648H411.125ZM425.146 363.364V375H422.334V363.364H425.146ZM426.912 375V363.364H435.026V365.648H429.724V368.034H434.611V370.324H429.724V372.716H435.026V375H426.912ZM436.787 375V363.364H441.594C442.465 363.364 443.217 363.521 443.849 363.835C444.486 364.146 444.976 364.593 445.321 365.176C445.666 365.756 445.838 366.443 445.838 367.239C445.838 368.045 445.662 368.731 445.31 369.295C444.957 369.856 444.457 370.284 443.81 370.58C443.162 370.871 442.395 371.017 441.509 371.017H438.469V368.801H440.986C441.41 368.801 441.764 368.746 442.048 368.636C442.336 368.523 442.554 368.352 442.702 368.125C442.849 367.894 442.923 367.598 442.923 367.239C442.923 366.879 442.849 366.581 442.702 366.347C442.554 366.108 442.336 365.93 442.048 365.812C441.76 365.691 441.406 365.631 440.986 365.631H439.599V375H436.787ZM443.338 369.682L446.236 375H443.168L440.327 369.682H443.338Z" fill="#181C14"/>
<defs>
<filter id="filter0_f_1_11" x="393" y="199" width="165.5" height="188.5" filterUnits="userSpaceOnUse" color-interpolation-filters="sRGB">
<feFlood flood-opacity="0" result="BackgroundImageFix"/>
<feBlend mode="normal" in="SourceGraphic" in2="BackgroundImageFix" result="shape"/>
<feGaussianBlur stdDeviation="9" result="effect1_foregroundBlur_1_11"/>
</filter>
</defs>
</svg>
